<?xml version="1.0" encoding="us-ascii" standalone="no"?><svg xmlns="http://www.w3.org/2000/svg" xmlns:xlink="http://www.w3.org/1999/xlink" contentStyleType="text/css" height="592px" preserveAspectRatio="none" style="width:498px;height:592px;background:#FFFFFF;" version="1.1" viewBox="0 0 498 592" width="498px" zoomAndPan="magnify"><defs/><g><rect fill="#FFFFFF" height="414.5938" style="stroke:#181818;stroke-width:1.0;" width="10" x="131" y="124.6953"/><rect fill="#FFFFFF" height="71.2656" style="stroke:#181818;stroke-width:1.0;" width="10" x="311" y="338.4922"/><rect fill="#FFFFFF" height="71.2656" style="stroke:#181818;stroke-width:1.0;" width="10" x="400" y="195.9609"/><rect fill="#FFFFFF" height="71.2656" style="stroke:#181818;stroke-width:1.0;" width="10" x="400" y="438.8906"/><line style="stroke:#181818;stroke-width:0.5;stroke-dasharray:5.0,5.0;" x1="33" x2="33" y1="36.2969" y2="557.2891"/><line style="stroke:#181818;stroke-width:0.5;stroke-dasharray:5.0,5.0;" x1="135.5" x2="135.5" y1="36.2969" y2="557.2891"/><line style="stroke:#181818;stroke-width:0.5;stroke-dasharray:5.0,5.0;" x1="315.5" x2="315.5" y1="36.2969" y2="557.2891"/><line style="stroke:#181818;stroke-width:0.5;stroke-dasharray:5.0,5.0;" x1="405" x2="405" y1="36.2969" y2="557.2891"/><rect fill="#E2E2F0" height="30.2969" rx="2.5" ry="2.5" style="stroke:#181818;stroke-width:0.5;" width="56" x="5" y="5"/><text fill="#000000" font-family="sans-serif" font-size="14" lengthAdjust="spacing" textLength="42" x="12" y="24.9951">&#29992;&#25143;&#31471;</text><rect fill="#E2E2F0" height="30.2969" rx="2.5" ry="2.5" style="stroke:#181818;stroke-width:0.5;" width="56" x="5" y="556.2891"/><text fill="#000000" font-family="sans-serif" font-size="14" lengthAdjust="spacing" textLength="42" x="12" y="576.2842">&#29992;&#25143;&#31471;</text><rect fill="#E2E2F0" height="30.2969" rx="2.5" ry="2.5" style="stroke:#181818;stroke-width:0.5;" width="55" x="108.5" y="5"/><text fill="#000000" font-family="sans-serif" font-size="14" lengthAdjust="spacing" textLength="41" x="115.5" y="24.9951">tj-aigc</text><rect fill="#E2E2F0" height="30.2969" rx="2.5" ry="2.5" style="stroke:#181818;stroke-width:0.5;" width="55" x="108.5" y="556.2891"/><text fill="#000000" font-family="sans-serif" font-size="14" lengthAdjust="spacing" textLength="41" x="115.5" y="576.2842">tj-aigc</text><rect fill="#E2E2F0" height="30.2969" rx="2.5" ry="2.5" style="stroke:#181818;stroke-width:0.5;" width="75" x="278.5" y="5"/><text fill="#000000" font-family="sans-serif" font-size="14" lengthAdjust="spacing" textLength="61" x="285.5" y="24.9951">tj-course</text><rect fill="#E2E2F0" height="30.2969" rx="2.5" ry="2.5" style="stroke:#181818;stroke-width:0.5;" width="75" x="278.5" y="556.2891"/><text fill="#000000" font-family="sans-serif" font-size="14" lengthAdjust="spacing" textLength="61" x="285.5" y="576.2842">tj-course</text><rect fill="#E2E2F0" height="30.2969" rx="2.5" ry="2.5" style="stroke:#181818;stroke-width:0.5;" width="56" x="377" y="5"/><text fill="#000000" font-family="sans-serif" font-size="14" lengthAdjust="spacing" textLength="42" x="384" y="24.9951">&#22823;&#27169;&#22411;</text><rect fill="#E2E2F0" height="30.2969" rx="2.5" ry="2.5" style="stroke:#181818;stroke-width:0.5;" width="56" x="377" y="556.2891"/><text fill="#000000" font-family="sans-serif" font-size="14" lengthAdjust="spacing" textLength="42" x="384" y="576.2842">&#22823;&#27169;&#22411;</text><rect fill="#FFFFFF" height="414.5938" style="stroke:#181818;stroke-width:1.0;" width="10" x="131" y="124.6953"/><rect fill="#FFFFFF" height="71.2656" style="stroke:#181818;stroke-width:1.0;" width="10" x="311" y="338.4922"/><rect fill="#FFFFFF" height="71.2656" style="stroke:#181818;stroke-width:1.0;" width="10" x="400" y="195.9609"/><rect fill="#FFFFFF" height="71.2656" style="stroke:#181818;stroke-width:1.0;" width="10" x="400" y="438.8906"/><line style="stroke:#181818;stroke-width:1.0;" x1="136" x2="178" y1="87.5625" y2="87.5625"/><line style="stroke:#181818;stroke-width:1.0;" x1="178" x2="178" y1="87.5625" y2="100.5625"/><line style="stroke:#181818;stroke-width:1.0;" x1="131" x2="178" y1="100.5625" y2="100.5625"/><polygon fill="#181818" points="141,96.5625,131,100.5625,141,104.5625,137,100.5625" style="stroke:#181818;stroke-width:1.0;"/><text fill="#000000" font-family="sans-serif" font-size="13" font-weight="bold" lengthAdjust="spacing" textLength="9" x="143" y="74.9302">1</text><text fill="#000000" font-family="sans-serif" font-size="13" lengthAdjust="spacing" textLength="26" x="156" y="67.3638">&#27880;&#20876;</text><text fill="#000000" font-family="sans-serif" font-size="13" lengthAdjust="spacing" textLength="78" x="156" y="82.4966">CourseTools</text><polygon fill="#181818" points="119,120.6953,129,124.6953,119,128.6953,123,124.6953" style="stroke:#181818;stroke-width:1.0;"/><line style="stroke:#181818;stroke-width:1.0;" x1="33" x2="125" y1="124.6953" y2="124.6953"/><text fill="#000000" font-family="sans-serif" font-size="13" font-weight="bold" lengthAdjust="spacing" textLength="9" x="40" y="119.6294">2</text><text fill="#000000" font-family="sans-serif" font-size="13" lengthAdjust="spacing" textLength="52" x="53" y="119.6294">&#21457;&#36865;&#38382;&#39064;</text><line style="stroke:#181818;stroke-width:1.0;" x1="141" x2="183" y1="153.8281" y2="153.8281"/><line style="stroke:#181818;stroke-width:1.0;" x1="183" x2="183" y1="153.8281" y2="166.8281"/><line style="stroke:#181818;stroke-width:1.0;" x1="142" x2="183" y1="166.8281" y2="166.8281"/><polygon fill="#181818" points="152,162.8281,142,166.8281,152,170.8281,148,166.8281" style="stroke:#181818;stroke-width:1.0;"/><text fill="#000000" font-family="sans-serif" font-size="13" font-weight="bold" lengthAdjust="spacing" textLength="9" x="148" y="148.7622">3</text><text fill="#000000" font-family="sans-serif" font-size="13" lengthAdjust="spacing" textLength="143" x="161" y="148.7622">&#25972;&#21512;&#38382;&#39064;&#21644;CourseTools</text><polygon fill="#181818" points="388,191.9609,398,195.9609,388,199.9609,392,195.9609" style="stroke:#181818;stroke-width:1.0;"/><line style="stroke:#181818;stroke-width:1.0;" x1="141" x2="394" y1="195.9609" y2="195.9609"/><text fill="#000000" font-family="sans-serif" font-size="13" font-weight="bold" lengthAdjust="spacing" textLength="9" x="148" y="190.895">4</text><text fill="#000000" font-family="sans-serif" font-size="13" lengthAdjust="spacing" textLength="104" x="161" y="190.895">&#19968;&#36215;&#21457;&#36865;&#32473;&#22823;&#27169;&#22411;</text><line style="stroke:#181818;stroke-width:1.0;" x1="410" x2="452" y1="225.0938" y2="225.0938"/><line style="stroke:#181818;stroke-width:1.0;" x1="452" x2="452" y1="225.0938" y2="238.0938"/><line style="stroke:#181818;stroke-width:1.0;" x1="411" x2="452" y1="238.0938" y2="238.0938"/><polygon fill="#181818" points="421,234.0938,411,238.0938,421,242.0938,417,238.0938" style="stroke:#181818;stroke-width:1.0;"/><text fill="#000000" font-family="sans-serif" font-size="13" font-weight="bold" lengthAdjust="spacing" textLength="9" x="417" y="220.0278">5</text><text fill="#000000" font-family="sans-serif" font-size="13" lengthAdjust="spacing" textLength="52" x="430" y="220.0278">&#20869;&#23481;&#29983;&#25104;</text><polygon fill="#181818" points="152,263.2266,142,267.2266,152,271.2266,148,267.2266" style="stroke:#181818;stroke-width:1.0;"/><line style="stroke:#181818;stroke-width:1.0;" x1="146" x2="404" y1="267.2266" y2="267.2266"/><text fill="#000000" font-family="sans-serif" font-size="13" font-weight="bold" lengthAdjust="spacing" textLength="9" x="158" y="262.1606">6</text><text fill="#000000" font-family="sans-serif" font-size="13" lengthAdjust="spacing" textLength="52" x="171" y="262.1606">&#36820;&#22238;&#20869;&#23481;</text><line style="stroke:#181818;stroke-width:1.0;" x1="141" x2="183" y1="296.3594" y2="296.3594"/><line style="stroke:#181818;stroke-width:1.0;" x1="183" x2="183" y1="296.3594" y2="309.3594"/><line style="stroke:#181818;stroke-width:1.0;" x1="142" x2="183" y1="309.3594" y2="309.3594"/><polygon fill="#181818" points="152,305.3594,142,309.3594,152,313.3594,148,309.3594" style="stroke:#181818;stroke-width:1.0;"/><text fill="#000000" font-family="sans-serif" font-size="13" font-weight="bold" lengthAdjust="spacing" textLength="9" x="148" y="291.2935">7</text><text fill="#000000" font-family="sans-serif" font-size="13" lengthAdjust="spacing" textLength="104" x="161" y="291.2935">&#35843;&#29992;CourseTools</text><polygon fill="#181818" points="299,334.4922,309,338.4922,299,342.4922,303,338.4922" style="stroke:#181818;stroke-width:1.0;"/><line style="stroke:#181818;stroke-width:1.0;" x1="141" x2="305" y1="338.4922" y2="338.4922"/><text fill="#000000" font-family="sans-serif" font-size="13" font-weight="bold" lengthAdjust="spacing" textLength="9" x="148" y="333.4263">8</text><text fill="#000000" font-family="sans-serif" font-size="13" lengthAdjust="spacing" textLength="60" x="161" y="333.4263">Feign&#35843;&#29992;</text><line style="stroke:#181818;stroke-width:1.0;" x1="321" x2="363" y1="367.625" y2="367.625"/><line style="stroke:#181818;stroke-width:1.0;" x1="363" x2="363" y1="367.625" y2="380.625"/><line style="stroke:#181818;stroke-width:1.0;" x1="322" x2="363" y1="380.625" y2="380.625"/><polygon fill="#181818" points="332,376.625,322,380.625,332,384.625,328,380.625" style="stroke:#181818;stroke-width:1.0;"/><text fill="#000000" font-family="sans-serif" font-size="13" font-weight="bold" lengthAdjust="spacing" textLength="9" x="328" y="362.5591">9</text><text fill="#000000" font-family="sans-serif" font-size="13" lengthAdjust="spacing" textLength="52" x="341" y="362.5591">&#20869;&#37096;&#25191;&#34892;</text><polygon fill="#181818" points="152,405.7578,142,409.7578,152,413.7578,148,409.7578" style="stroke:#181818;stroke-width:1.0;"/><line style="stroke:#181818;stroke-width:1.0;" x1="146" x2="315" y1="409.7578" y2="409.7578"/><text fill="#000000" font-family="sans-serif" font-size="13" font-weight="bold" lengthAdjust="spacing" textLength="18" x="158" y="404.6919">10</text><text fill="#000000" font-family="sans-serif" font-size="13" lengthAdjust="spacing" textLength="52" x="180" y="404.6919">&#21709;&#24212;&#32467;&#26524;</text><polygon fill="#181818" points="388,434.8906,398,438.8906,388,442.8906,392,438.8906" style="stroke:#181818;stroke-width:1.0;"/><line style="stroke:#181818;stroke-width:1.0;" x1="141" x2="394" y1="438.8906" y2="438.8906"/><text fill="#000000" font-family="sans-serif" font-size="13" font-weight="bold" lengthAdjust="spacing" textLength="18" x="148" y="433.8247">11</text><text fill="#000000" font-family="sans-serif" font-size="13" lengthAdjust="spacing" textLength="117" x="170" y="433.8247">&#21457;&#36865;Tool&#29983;&#25104;&#30340;&#32467;&#26524;</text><line style="stroke:#181818;stroke-width:1.0;" x1="410" x2="452" y1="468.0234" y2="468.0234"/><line style="stroke:#181818;stroke-width:1.0;" x1="452" x2="452" y1="468.0234" y2="481.0234"/><line style="stroke:#181818;stroke-width:1.0;" x1="411" x2="452" y1="481.0234" y2="481.0234"/><polygon fill="#181818" points="421,477.0234,411,481.0234,421,485.0234,417,481.0234" style="stroke:#181818;stroke-width:1.0;"/><text fill="#000000" font-family="sans-serif" font-size="13" font-weight="bold" lengthAdjust="spacing" textLength="18" x="417" y="462.9575">12</text><text fill="#000000" font-family="sans-serif" font-size="13" lengthAdjust="spacing" textLength="52" x="439" y="462.9575">&#20869;&#23481;&#29983;&#25104;</text><polygon fill="#181818" points="152,506.1563,142,510.1563,152,514.1563,148,510.1563" style="stroke:#181818;stroke-width:1.0;"/><line style="stroke:#181818;stroke-width:1.0;" x1="146" x2="404" y1="510.1563" y2="510.1563"/><text fill="#000000" font-family="sans-serif" font-size="13" font-weight="bold" lengthAdjust="spacing" textLength="18" x="158" y="505.0903">13</text><text fill="#000000" font-family="sans-serif" font-size="13" lengthAdjust="spacing" textLength="52" x="180" y="505.0903">&#36820;&#22238;&#20869;&#23481;</text><polygon fill="#181818" points="44,535.2891,34,539.2891,44,543.2891,40,539.2891" style="stroke:#181818;stroke-width:1.0;"/><line style="stroke:#181818;stroke-width:1.0;" x1="38" x2="135" y1="539.2891" y2="539.2891"/><text fill="#000000" font-family="sans-serif" font-size="13" font-weight="bold" lengthAdjust="spacing" textLength="18" x="50" y="534.2231">14</text><text fill="#000000" font-family="sans-serif" font-size="13" lengthAdjust="spacing" textLength="52" x="72" y="534.2231">&#27969;&#24335;&#36755;&#20986;</text></g></svg>